<?xml version="1.0" encoding="UTF-8"?>
<svg width="310px" height="76px" viewBox="0 0 310 76" version="1.1" xmlns="http://www.w3.org/2000/svg" xmlns:xlink="http://www.w3.org/1999/xlink">
    <title>Group 4</title>
    <g id="פופאפ-איסוף-פרטים" stroke="none" stroke-width="1" fill="none" fill-rule="evenodd">
        <g id="Group-3" transform="translate(0.000000, 1.000000)">
            <g id="lessoons." transform="translate(36.735751, -0.860096)" fill="#FFFFFF" fill-rule="nonzero">
                <polygon id="l" points="9.68911719 38.8600957 9.68911719 0 0 0 0 38.8600957"></polygon>
                <path d="M28.1347124,9.63730372 C19.8963721,9.63730372 13.5751299,16.1139863 13.5751299,24.6113939 C13.5751299,33.0051746 19.8963721,39.5854841 27.8238316,39.5854841 C33.1606181,39.5854841 37.0466276,37.3575053 39.2746065,34.3523246 L33.264245,29.4300458 C32.2279758,30.7771958 30.2072508,31.7098381 28.1865258,31.7098381 C25.6476662,31.7098381 23.7305682,30.3626881 22.7461124,28.1347093 L42.2797872,28.1347093 C43.6787506,18.7564728 38.4974045,9.63730372 28.1347124,9.63730372 Z M28.1865258,17.6683902 C30.8808258,17.6683902 32.7979238,19.2746074 33.5233123,21.5025863 L22.590672,21.5025863 C23.5233143,19.0673536 25.5958528,17.6683902 28.1865258,17.6683902 Z" id="e"></path>
                <path d="M69.0155393,16.8911882 C67.6683894,12.4870441 63.6787529,9.5336768 56.7875626,9.5336768 C49.8445588,9.5336768 44.5077723,12.6424845 44.5077723,18.2901517 C44.5077723,24.0932593 49.9999992,26.3730516 55.6476664,27.875642 C58.4455933,28.6010304 59.7927433,29.119165 59.7927433,30.2590612 C59.7927433,31.4507708 58.9119145,32.0725323 57.1502568,32.0725323 C55.4404126,32.0725323 53.5233145,31.3471438 52.3316049,28.7046573 L43.8341974,31.5543977 C45.595855,37.2538784 50.31088,39.689111 57.2538837,39.689111 C63.3160587,39.689111 69.7409278,36.9948111 69.7409278,30.7253823 C69.7409278,24.9222747 65.3885971,22.7461093 59.2227952,21.0880786 C55.4404126,20.1036228 54.4559568,19.5336768 54.4559568,18.3937786 C54.4559568,17.4611363 55.3367857,16.9430017 56.9948164,16.9430017 C58.8082876,16.9430017 60.207251,18.0828978 60.880826,19.5336768 L69.0155393,16.8911882 Z" id="s"></path>
                <path d="M96.2176119,16.8911882 C94.8704619,12.4870441 90.8808254,9.5336768 83.9896351,9.5336768 C77.0466314,9.5336768 71.7098449,12.6424845 71.7098449,18.2901517 C71.7098449,24.0932593 77.2020717,26.3730516 82.849739,27.875642 C85.6476659,28.6010304 86.9948159,29.119165 86.9948159,30.2590612 C86.9948159,31.4507708 86.113987,32.0725323 84.3523293,32.0725323 C82.6424851,32.0725323 80.7253871,31.3471438 79.5336775,28.7046573 L71.0362699,31.5543977 C72.7979276,37.2538784 77.5129525,39.689111 84.4559563,39.689111 C90.5181312,39.689111 96.9430003,36.9948111 96.9430003,30.7253823 C96.9430003,24.9222747 92.5906696,22.7461093 86.4248678,21.0880786 C82.6424851,20.1036228 81.6580294,19.5336768 81.6580294,18.3937786 C81.6580294,17.4611363 82.5388582,16.9430017 84.196889,16.9430017 C86.0103601,16.9430017 87.4093235,18.0828978 88.0828985,19.5336768 L96.2176119,16.8911882 Z" id="s"></path>
                <path d="M114.145075,39.6372976 C122.90155,39.6372976 129.119165,33.4196823 129.119165,24.6113939 C129.119165,15.8031056 122.90155,9.58549026 114.145075,9.58549026 C105.440414,9.58549026 99.2227982,15.8031056 99.2227982,24.6113939 C99.2227982,33.4196823 105.440414,39.6372976 114.145075,39.6372976 Z M114.145075,30.7771958 C111.088081,30.7771958 108.756475,28.1865227 108.756475,24.6113939 C108.756475,21.0362651 111.088081,18.4455921 114.145075,18.4455921 C117.253883,18.4455921 119.585488,21.0362651 119.585488,24.6113939 C119.585488,28.1865227 117.253883,30.7771958 114.145075,30.7771958 Z" id="o"></path>
                <path d="M147.098443,39.6372976 C155.854918,39.6372976 162.072533,33.4196823 162.072533,24.6113939 C162.072533,15.8031056 155.854918,9.58549026 147.098443,9.58549026 C138.393781,9.58549026 132.176166,15.8031056 132.176166,24.6113939 C132.176166,33.4196823 138.393781,39.6372976 147.098443,39.6372976 Z M147.098443,30.7771958 C144.041449,30.7771958 141.709843,28.1865227 141.709843,24.6113939 C141.709843,21.0362651 144.041449,18.4455921 147.098443,18.4455921 C150.207251,18.4455921 152.538856,21.0362651 152.538856,24.6113939 C152.538856,28.1865227 150.207251,30.7771958 147.098443,30.7771958 Z" id="o"></path>
                <path d="M183.730566,9.89637103 C180.518132,9.89637103 177.668391,11.0880806 175.595853,13.264246 L175.595853,10.3626922 L165.906736,10.3626922 L165.906736,38.8600957 L175.595853,38.8600957 L175.595853,23.4196843 C175.595853,20.2590632 177.409324,18.2383382 180.155437,18.2383382 C182.849737,18.2383382 184.663209,20.2590632 184.663209,23.4196843 L184.663209,38.8600957 L194.352326,38.8600957 L194.352326,22.1243478 C194.352326,14.0932614 190.362689,9.89637103 183.730566,9.89637103 Z" id="n"></path>
                <path d="M222.227975,16.8911882 C220.880825,12.4870441 216.891188,9.5336768 209.999998,9.5336768 C203.056994,9.5336768 197.720208,12.6424845 197.720208,18.2901517 C197.720208,24.0932593 203.212434,26.3730516 208.860102,27.875642 C211.658029,28.6010304 213.005179,29.119165 213.005179,30.2590612 C213.005179,31.4507708 212.12435,32.0725323 210.362692,32.0725323 C208.652848,32.0725323 206.73575,31.3471438 205.54404,28.7046573 L197.046633,31.5543977 C198.80829,37.2538784 203.523315,39.689111 210.466319,39.689111 C216.528494,39.689111 222.953363,36.9948111 222.953363,30.7253823 C222.953363,24.9222747 218.601032,22.7461093 212.43523,21.0880786 C208.652848,20.1036228 207.668392,19.5336768 207.668392,18.3937786 C207.668392,17.4611363 208.549221,16.9430017 210.207252,16.9430017 C212.020723,16.9430017 213.419686,18.0828978 214.093261,19.5336768 L222.227975,16.8911882 Z" id="s"></path>
                <path d="M231.50259,39.2227899 C234.870465,39.2227899 237.461138,36.5803034 237.461138,33.2642419 C237.461138,29.9481804 234.870465,27.3056939 231.50259,27.3056939 C228.186528,27.3056939 225.595855,29.9481804 225.595855,33.2642419 C225.595855,36.5803034 228.186528,39.2227899 231.50259,39.2227899 Z" id="."></path>
            </g>
            <g id="Group-2" transform="translate(116.000000, 33.541366)">
                <path d="M0,14.9586335 C16.0558465,28.9371895 32.5558465,35.9264676 49.5,35.9264676 C66.4441535,35.9264676 83.4181462,30.6319273 100.421978,20.0428467" id="Path-6" stroke="#FFFFFF" stroke-width="10"></path>
                <g id="Group" transform="translate(100.889337, 19.500000) rotate(-31.000000) translate(-100.889337, -19.500000) translate(90.573928, 2.948772)" fill="#FFFFFF">
                    <polygon id="Path-7" transform="translate(10.315409, 21.607161) rotate(32.000000) translate(-10.315409, -21.607161) " points="16.3750796 11.8386592 11.7103203 31.3756625 4.25573875 29.4529163 7.19430241 17.5754455"></polygon>
                    <polygon id="Path-7" transform="translate(10.315409, 11.495295) scale(1, -1) rotate(32.000000) translate(-10.315409, -11.495295) " points="16.3750796 1.72679368 11.7103203 21.263797 4.25573875 19.3410508 7.19430241 7.46357999"></polygon>
                </g>
            </g>
        </g>
    </g>
</svg>