<?xml version="1.0" encoding="UTF-8"?>
<svg width="239px" height="91px" viewBox="0 0 239 91" version="1.1" xmlns="http://www.w3.org/2000/svg" xmlns:xlink="http://www.w3.org/1999/xlink">
    <title>Group 4</title>
    <g id="logo" stroke="none" stroke-width="1" fill="none" fill-rule="evenodd">
        <g id="Artboard" transform="translate(-36.000000, -87.000000)">
            <g id="Group-3" transform="translate(36.735751, 87.214166)">
                <g id="lessoons." transform="translate(0.000000, 14.925738)" fill="#FFFFFF" fill-rule="nonzero">
                    <polygon id="l" points="9.68911719 38.8600957 9.68911719 0 0 0 0 38.8600957"></polygon>
                    <path d="M28.1347124,9.63730372 C19.8963721,9.63730372 13.5751299,16.1139863 13.5751299,24.6113939 C13.5751299,33.0051746 19.8963721,39.5854841 27.8238316,39.5854841 C33.1606181,39.5854841 37.0466276,37.3575053 39.2746065,34.3523246 L33.264245,29.4300458 C32.2279758,30.7771958 30.2072508,31.7098381 28.1865258,31.7098381 C25.6476662,31.7098381 23.7305682,30.3626881 22.7461124,28.1347093 L42.2797872,28.1347093 C43.6787506,18.7564728 38.4974045,9.63730372 28.1347124,9.63730372 Z M28.1865258,17.6683902 C30.8808258,17.6683902 32.7979238,19.2746074 33.5233123,21.5025863 L22.590672,21.5025863 C23.5233143,19.0673536 25.5958528,17.6683902 28.1865258,17.6683902 Z" id="e"></path>
                    <path d="M69.0155393,16.8911882 C67.6683894,12.4870441 63.6787529,9.5336768 56.7875626,9.5336768 C49.8445588,9.5336768 44.5077723,12.6424845 44.5077723,18.2901517 C44.5077723,24.0932593 49.9999992,26.3730516 55.6476664,27.875642 C58.4455933,28.6010304 59.7927433,29.119165 59.7927433,30.2590612 C59.7927433,31.4507708 58.9119145,32.0725323 57.1502568,32.0725323 C55.4404126,32.0725323 53.5233145,31.3471438 52.3316049,28.7046573 L43.8341974,31.5543977 C45.595855,37.2538784 50.31088,39.689111 57.2538837,39.689111 C63.3160587,39.689111 69.7409278,36.9948111 69.7409278,30.7253823 C69.7409278,24.9222747 65.3885971,22.7461093 59.2227952,21.0880786 C55.4404126,20.1036228 54.4559568,19.5336768 54.4559568,18.3937786 C54.4559568,17.4611363 55.3367857,16.9430017 56.9948164,16.9430017 C58.8082876,16.9430017 60.207251,18.0828978 60.880826,19.5336768 L69.0155393,16.8911882 Z" id="s"></path>
                    <path d="M96.2176119,16.8911882 C94.8704619,12.4870441 90.8808254,9.5336768 83.9896351,9.5336768 C77.0466314,9.5336768 71.7098449,12.6424845 71.7098449,18.2901517 C71.7098449,24.0932593 77.2020717,26.3730516 82.849739,27.875642 C85.6476659,28.6010304 86.9948159,29.119165 86.9948159,30.2590612 C86.9948159,31.4507708 86.113987,32.0725323 84.3523293,32.0725323 C82.6424851,32.0725323 80.7253871,31.3471438 79.5336775,28.7046573 L71.0362699,31.5543977 C72.7979276,37.2538784 77.5129525,39.689111 84.4559563,39.689111 C90.5181312,39.689111 96.9430003,36.9948111 96.9430003,30.7253823 C96.9430003,24.9222747 92.5906696,22.7461093 86.4248678,21.0880786 C82.6424851,20.1036228 81.6580294,19.5336768 81.6580294,18.3937786 C81.6580294,17.4611363 82.5388582,16.9430017 84.196889,16.9430017 C86.0103601,16.9430017 87.4093235,18.0828978 88.0828985,19.5336768 L96.2176119,16.8911882 Z" id="s"></path>
                    <path d="M114.145075,39.6372976 C122.90155,39.6372976 129.119165,33.4196823 129.119165,24.6113939 C129.119165,15.8031056 122.90155,9.58549026 114.145075,9.58549026 C105.440414,9.58549026 99.2227982,15.8031056 99.2227982,24.6113939 C99.2227982,33.4196823 105.440414,39.6372976 114.145075,39.6372976 Z M114.145075,30.7771958 C111.088081,30.7771958 108.756475,28.1865227 108.756475,24.6113939 C108.756475,21.0362651 111.088081,18.4455921 114.145075,18.4455921 C117.253883,18.4455921 119.585488,21.0362651 119.585488,24.6113939 C119.585488,28.1865227 117.253883,30.7771958 114.145075,30.7771958 Z" id="o"></path>
                    <path d="M147.098443,39.6372976 C155.854918,39.6372976 162.072533,33.4196823 162.072533,24.6113939 C162.072533,15.8031056 155.854918,9.58549026 147.098443,9.58549026 C138.393781,9.58549026 132.176166,15.8031056 132.176166,24.6113939 C132.176166,33.4196823 138.393781,39.6372976 147.098443,39.6372976 Z M147.098443,30.7771958 C144.041449,30.7771958 141.709843,28.1865227 141.709843,24.6113939 C141.709843,21.0362651 144.041449,18.4455921 147.098443,18.4455921 C150.207251,18.4455921 152.538856,21.0362651 152.538856,24.6113939 C152.538856,28.1865227 150.207251,30.7771958 147.098443,30.7771958 Z" id="o"></path>
                    <path d="M183.730566,9.89637103 C180.518132,9.89637103 177.668391,11.0880806 175.595853,13.264246 L175.595853,10.3626922 L165.906736,10.3626922 L165.906736,38.8600957 L175.595853,38.8600957 L175.595853,23.4196843 C175.595853,20.2590632 177.409324,18.2383382 180.155437,18.2383382 C182.849737,18.2383382 184.663209,20.2590632 184.663209,23.4196843 L184.663209,38.8600957 L194.352326,38.8600957 L194.352326,22.1243478 C194.352326,14.0932614 190.362689,9.89637103 183.730566,9.89637103 Z" id="n"></path>
                    <path d="M222.227975,16.8911882 C220.880825,12.4870441 216.891188,9.5336768 209.999998,9.5336768 C203.056994,9.5336768 197.720208,12.6424845 197.720208,18.2901517 C197.720208,24.0932593 203.212434,26.3730516 208.860102,27.875642 C211.658029,28.6010304 213.005179,29.119165 213.005179,30.2590612 C213.005179,31.4507708 212.12435,32.0725323 210.362692,32.0725323 C208.652848,32.0725323 206.73575,31.3471438 205.54404,28.7046573 L197.046633,31.5543977 C198.80829,37.2538784 203.523315,39.689111 210.466319,39.689111 C216.528494,39.689111 222.953363,36.9948111 222.953363,30.7253823 C222.953363,24.9222747 218.601032,22.7461093 212.43523,21.0880786 C208.652848,20.1036228 207.668392,19.5336768 207.668392,18.3937786 C207.668392,17.4611363 208.549221,16.9430017 210.207252,16.9430017 C212.020723,16.9430017 213.419686,18.0828978 214.093261,19.5336768 L222.227975,16.8911882 Z" id="s"></path>
                    <path d="M231.50259,39.2227899 C234.870465,39.2227899 237.461138,36.5803034 237.461138,33.2642419 C237.461138,29.9481804 234.870465,27.3056939 231.50259,27.3056939 C228.186528,27.3056939 225.595855,29.9481804 225.595855,33.2642419 C225.595855,36.5803034 228.186528,39.2227899 231.50259,39.2227899 Z" id="."></path>
                </g>
                <g id="Group-2" transform="translate(79.264249, 49.327200)">
                    <path d="M0,14.9586335 C16.0558465,28.9371895 32.5558465,35.9264676 49.5,35.9264676 C66.4441535,35.9264676 83.4181462,30.6319273 100.421978,20.0428467" id="Path-6" stroke="#FFFFFF" stroke-width="10"></path>
                    <g id="Group" transform="translate(100.889337, 19.500000) rotate(-31.000000) translate(-100.889337, -19.500000) translate(90.573928, 2.948772)" fill="#FFFFFF">
                        <polygon id="Path-7" transform="translate(10.315409, 21.607161) rotate(32.000000) translate(-10.315409, -21.607161) " points="16.3750796 11.8386592 11.7103203 31.3756625 4.25573875 29.4529163 7.19430241 17.5754455"></polygon>
                        <polygon id="Path-7" transform="translate(10.315409, 11.495295) scale(1, -1) rotate(32.000000) translate(-10.315409, -11.495295) " points="16.3750796 1.72679368 11.7103203 21.263797 4.25573875 19.3410508 7.19430241 7.46357999"></polygon>
                    </g>
                </g>
                <g id="PHYSICS" transform="translate(13.977548, 0.000000)" fill="#FFFFFF" fill-rule="nonzero">
                    <path d="M0,0.442141533 L0,19.7858336 L5.58203685,19.7858336 L5.58203685,14.2590644 L8.8704645,14.2590644 C13.2366121,14.2590644 15.9723629,11.6338491 15.9723629,7.35060298 C15.9723629,3.17789227 13.2366121,0.442141533 8.8704645,0.442141533 L0,0.442141533 Z M5.58203685,9.64421219 L5.58203685,5.05699378 L8.09671682,5.05699378 C9.5336768,5.05699378 10.4179599,6.02417839 10.4179599,7.35060298 C10.4179599,8.78756297 9.5336768,9.64421219 8.09671682,9.64421219 L5.58203685,9.64421219 Z" id="P"></path>
                    <polygon id="H" points="30.6183049 7.32296914 23.9861819 7.32296914 23.9861819 0.442141533 18.4041451 0.442141533 18.4041451 19.7858336 23.9861819 19.7858336 23.9861819 12.0759906 30.6183049 12.0759906 30.6183049 19.7858336 36.2003418 19.7858336 36.2003418 0.442141533 30.6183049 0.442141533"></polygon>
                    <polygon id="Y" points="47.2538844 6.71502453 43.937823 0.442141533 37.7754753 0.442141533 37.7754753 0.718479991 44.462866 12.0483568 44.462866 19.7858336 50.0449029 19.7858336 50.0449029 12.0483568 56.8151951 0.718479991 56.8151951 0.442141533 50.6528475 0.442141533"></polygon>
                    <path d="M72.5941248,4.6424861 C71.488771,1.93436921 69.1675279,0 64.7184788,0 C60.6839373,0 57.2020727,1.85146767 57.2020727,5.6096707 C57.2020727,9.42314142 60.3246973,10.9153691 64.0829003,12.0759906 C66.3765095,12.7944706 67.1502572,13.3747814 67.1502572,14.2590644 C67.1502572,15.0880798 66.4870449,15.5578552 65.2711557,15.5578552 C63.9447311,15.5578552 62.6459403,14.867009 61.7892911,12.8497383 L56.8428327,14.867009 C58.0587219,18.4317752 60.9326419,20.2279751 65.1329864,20.2279751 C68.8911895,20.2279751 72.8980971,18.459409 72.8980971,14.341966 C72.8980971,10.5284953 70.0794448,8.89809835 66.1554387,7.79274452 C63.3644203,7.01899683 62.8670111,6.52158761 62.8670111,5.72020608 C62.8670111,4.91882455 63.5302234,4.55958456 64.6908449,4.55958456 C65.9896357,4.55958456 67.012088,5.27806455 67.6200326,6.54922146 L72.5941248,4.6424861 Z" id="S"></path>
                    <polygon id="I" points="75.4956822 19.7858336 81.0777191 19.7858336 81.0777191 0.442141533 75.4956822 0.442141533"></polygon>
                    <path d="M93.8998254,15.1709813 C91.2469762,15.1709813 89.1468039,13.0431752 89.1468039,10.1139876 C89.1468039,7.18479991 91.2469762,5.05699378 93.8998254,5.05699378 C95.5025884,5.05699378 96.7461115,5.69257224 97.4645915,6.41105223 L100.697751,2.62521535 C99.0673545,0.911916912 96.6908438,0 93.7616561,0 C87.9861824,0 83.5924009,4.22797841 83.5924009,10.1139876 C83.5924009,16 87.9861824,20.2279751 93.7616561,20.2279751 C96.6908438,20.2279751 99.0673545,19.3160582 100.697751,17.6027598 L97.4645915,13.8169229 C96.7461115,14.5354029 95.5025884,15.1709813 93.8998254,15.1709813 Z" id="C"></path>
                    <path d="M117.056992,4.6424861 C115.951638,1.93436921 113.630395,0 109.181346,0 C105.146804,0 101.66494,1.85146767 101.66494,5.6096707 C101.66494,9.42314142 104.787564,10.9153691 108.545767,12.0759906 C110.839377,12.7944706 111.613124,13.3747814 111.613124,14.2590644 C111.613124,15.0880798 110.949912,15.5578552 109.734023,15.5578552 C108.407598,15.5578552 107.108807,14.867009 106.252158,12.8497383 L101.3057,14.867009 C102.521589,18.4317752 105.395509,20.2279751 109.595853,20.2279751 C113.354056,20.2279751 117.360964,18.459409 117.360964,14.341966 C117.360964,10.5284953 114.542312,8.89809835 110.618306,7.79274452 C107.827287,7.01899683 107.329878,6.52158761 107.329878,5.72020608 C107.329878,4.91882455 107.99309,4.55958456 109.153712,4.55958456 C110.452503,4.55958456 111.474955,5.27806455 112.0829,6.54922146 L117.056992,4.6424861 Z" id="S"></path>
                </g>
            </g>
        </g>
    </g>
</svg>