<?xml version="1.0" encoding="UTF-8"?>
<svg width="33px" height="33px" viewBox="0 0 33 33" version="1.1" xmlns="http://www.w3.org/2000/svg" xmlns:xlink="http://www.w3.org/1999/xlink">
    <title>Group 34</title>
    <g id="בריכת-תלמידים" stroke="none" stroke-width="1" fill="none" fill-rule="evenodd">
        <g id="Students-Pool-Desktop" transform="translate(-1500.000000, -292.000000)">
            <g id="Group-34" transform="translate(1500.000000, 292.000000)">
                <circle id="Oval" fill="#4E63FE" cx="16.5" cy="16.5" r="16.5"></circle>
                <g id="Group-30" transform="translate(10.000000, 10.000000)" fill="#FFFFFF">
                    <path d="M-1.3021483,5.68471181 L14.2814533,5.91531318 C14.6713498,5.92108274 14.9860245,6.23576231 14.9917881,6.62565888 C14.9973363,7.00098252 14.6975741,7.30974015 14.3222505,7.31528834 C14.3155501,7.31538739 14.3088487,7.31538734 14.3021483,7.31528819 L-1.28145329,7.08468682 C-1.67134977,7.07891726 -1.98602453,6.76423769 -1.99178814,6.37434112 C-1.99733633,5.99901748 -1.6975741,5.69025985 -1.32225046,5.68471166 C-1.3155501,5.68461261 -1.30884865,5.68461266 -1.3021483,5.68471181 Z" id="Rectangle" transform="translate(6.500000, 6.500000) rotate(44.000000) translate(-6.500000, -6.500000) "></path>
                    <path d="M-1.3021483,5.68471181 L14.2814533,5.91531318 C14.6713498,5.92108274 14.9860245,6.23576231 14.9917881,6.62565888 C14.9973363,7.00098252 14.6975741,7.30974015 14.3222505,7.31528834 C14.3155501,7.31538739 14.3088487,7.31538734 14.3021483,7.31528819 L-1.28145329,7.08468682 C-1.67134977,7.07891726 -1.98602453,6.76423769 -1.99178814,6.37434112 C-1.99733633,5.99901748 -1.6975741,5.69025985 -1.32225046,5.68471166 C-1.3155501,5.68461261 -1.30884865,5.68461266 -1.3021483,5.68471181 Z" id="Rectangle" transform="translate(6.500000, 6.500000) scale(-1, 1) rotate(44.000000) translate(-6.500000, -6.500000) "></path>
                </g>
            </g>
        </g>
    </g>
</svg>